<?xml version="1.0" encoding="UTF-8"?>
<svg id="_Слой_2" data-name="Слой 2" xmlns="http://www.w3.org/2000/svg" viewBox="0 0 2313.42 253.28">
  <defs>
    <style>
      .cls-1 {
        fill: #fff;
      }

      .cls-1, .cls-2, .cls-3, .cls-4 {
        stroke: #000;
        stroke-miterlimit: 10;
        stroke-width: 1.65px;
      }

      .cls-2 {
        fill: #ff4145;
      }

      .cls-3 {
        fill: #ffa306;
      }

      .cls-4 {
        fill: #4b9bbc;
      }
    </style>
  </defs>
  <g id="_Слой_2-2" data-name="Слой 2">
    <g>
      <g>
        <g>
          <rect class="cls-1" x="281.23" y="144.96" width="54" height="54" rx="8.84" ry="8.84" transform="translate(-31.28 268.46) rotate(-45.02)"/>
          <rect class="cls-2" x="326.72" y="99.44" width="54" height="54" rx="8.84" ry="8.84" transform="translate(14.26 287.29) rotate(-45.02)"/>
          <rect class="cls-4" x="372.21" y="53.91" width="54" height="54" rx="8.84" ry="8.84" transform="translate(59.8 306.12) rotate(-45.02)"/>
          <rect class="cls-3" x="417.7" y="8.39" width="54" height="54" rx="8.84" ry="8.84" transform="translate(105.34 324.95) rotate(-45.02)"/>
        </g>
        <g>
          <rect class="cls-4" x="190.54" y="145.01" width="54" height="54" rx="8.84" ry="8.84" transform="translate(-57.9 204.31) rotate(-45.02)"/>
          <rect class="cls-4" x="236.18" y="99.64" width="54" height="54" rx="8.84" ry="8.84" transform="translate(-12.42 223.3) rotate(-45.02)"/>
          <rect class="cls-3" x="281.52" y="54.28" width="54" height="54" rx="8.84" ry="8.84" transform="translate(32.95 242.07) rotate(-45.02)"/>
          <rect class="cls-1" x="327" y="8.75" width="54" height="54" rx="8.84" ry="8.84" transform="translate(78.5 260.9) rotate(-45.02)"/>
        </g>
        <g>
          <rect class="cls-4" x="99.81" y="144.69" width="54" height="54" rx="8.84" ry="8.84" transform="translate(-84.27 140.04) rotate(-45.02)"/>
          <rect class="cls-2" x="144.98" y="99.49" width="54" height="54" rx="8.84" ry="8.84" transform="translate(-39.06 158.74) rotate(-45.02)"/>
          <rect class="cls-2" x="190.47" y="53.96" width="54" height="54" rx="8.84" ry="8.84" transform="translate(6.49 177.57) rotate(-45.02)"/>
          <rect class="cls-4" x="235.8" y="8.6" width="54" height="54" rx="8.84" ry="8.84" transform="translate(51.87 196.33) rotate(-45.02)"/>
        </g>
        <g>
          <rect class="cls-3" x="8.35" y="144.92" width="54" height="54" rx="8.84" ry="8.84" transform="translate(-111.25 75.41) rotate(-45.02)"/>
          <rect class="cls-2" x="54.15" y="99.07" width="54" height="54" rx="8.84" ry="8.84" transform="translate(-65.39 94.37) rotate(-45.02)"/>
          <rect class="cls-3" x="99.33" y="53.87" width="54" height="54" rx="8.84" ry="8.84" transform="translate(-20.17 113.07) rotate(-45.02)"/>
          <rect class="cls-1" x="144.82" y="8.35" width="54" height="54" rx="8.84" ry="8.84" transform="translate(25.37 131.91) rotate(-45.02)"/>
        </g>
      </g>
      <g>
        <g>
          <rect class="cls-1" x="608.99" y="190.9" width="54" height="54" rx="8.84" ry="8.84" transform="translate(32.32 513.78) rotate(-45.02)"/>
          <rect class="cls-2" x="654.48" y="145.38" width="54" height="54" rx="8.84" ry="8.84" transform="translate(77.86 532.61) rotate(-45.02)"/>
          <rect class="cls-4" x="699.97" y="99.85" width="54" height="54" rx="8.84" ry="8.84" transform="translate(123.4 551.44) rotate(-45.02)"/>
          <rect class="cls-3" x="745.46" y="54.32" width="54" height="54" rx="8.84" ry="8.84" transform="translate(168.94 570.27) rotate(-45.02)"/>
        </g>
        <g>
          <rect class="cls-4" x="518.3" y="190.94" width="54" height="54" rx="8.84" ry="8.84" transform="translate(5.7 449.63) rotate(-45.02)"/>
          <rect class="cls-4" x="563.95" y="145.58" width="54" height="54" rx="8.84" ry="8.84" transform="translate(51.18 468.63) rotate(-45.02)"/>
          <rect class="cls-3" x="609.28" y="100.21" width="54" height="54" rx="8.84" ry="8.84" transform="translate(96.55 487.39) rotate(-45.02)"/>
          <rect class="cls-1" x="654.76" y="54.68" width="54" height="54" rx="8.84" ry="8.84" transform="translate(142.1 506.22) rotate(-45.02)"/>
        </g>
        <g>
          <rect class="cls-4" x="427.57" y="190.62" width="54" height="54" rx="8.84" ry="8.84" transform="translate(-20.67 385.36) rotate(-45.02)"/>
          <rect class="cls-2" x="472.74" y="145.42" width="54" height="54" rx="8.84" ry="8.84" transform="translate(24.54 404.06) rotate(-45.02)"/>
          <rect class="cls-2" x="518.23" y="99.89" width="54" height="54" rx="8.84" ry="8.84" transform="translate(70.09 422.89) rotate(-45.02)"/>
          <rect class="cls-4" x="563.56" y="54.53" width="54" height="54" rx="8.84" ry="8.84" transform="translate(115.46 441.66) rotate(-45.02)"/>
        </g>
        <g>
          <rect class="cls-3" x="336.11" y="190.85" width="54" height="54" rx="8.84" ry="8.84" transform="translate(-47.65 320.73) rotate(-45.02)"/>
          <rect class="cls-2" x="381.92" y="145" width="54" height="54" rx="8.84" ry="8.84" transform="translate(-1.79 339.69) rotate(-45.02)"/>
          <rect class="cls-3" x="427.09" y="99.8" width="54" height="54" rx="8.84" ry="8.84" transform="translate(43.43 358.39) rotate(-45.02)"/>
          <rect class="cls-1" x="472.58" y="54.28" width="54" height="54" rx="8.84" ry="8.84" transform="translate(88.97 377.23) rotate(-45.02)"/>
        </g>
      </g>
      <g>
        <g>
          <rect class="cls-1" x="972.85" y="190.9" width="54" height="54" rx="8.84" ry="8.84" transform="translate(138.99 771.17) rotate(-45.02)"/>
          <rect class="cls-2" x="1018.34" y="145.38" width="54" height="54" rx="8.84" ry="8.84" transform="translate(184.53 790) rotate(-45.02)"/>
          <rect class="cls-4" x="1063.83" y="99.85" width="54" height="54" rx="8.84" ry="8.84" transform="translate(230.07 808.83) rotate(-45.02)"/>
          <rect class="cls-3" x="1109.32" y="54.32" width="54" height="54" rx="8.84" ry="8.84" transform="translate(275.61 827.66) rotate(-45.02)"/>
        </g>
        <g>
          <rect class="cls-4" x="882.16" y="190.94" width="54" height="54" rx="8.84" ry="8.84" transform="translate(112.38 707.02) rotate(-45.02)"/>
          <rect class="cls-4" x="927.81" y="145.58" width="54" height="54" rx="8.84" ry="8.84" transform="translate(157.85 726.02) rotate(-45.02)"/>
          <rect class="cls-3" x="973.14" y="100.21" width="54" height="54" rx="8.84" ry="8.84" transform="translate(203.23 744.78) rotate(-45.02)"/>
          <rect class="cls-1" x="1018.62" y="54.68" width="54" height="54" rx="8.84" ry="8.84" transform="translate(248.77 763.61) rotate(-45.02)"/>
        </g>
        <g>
          <rect class="cls-4" x="791.43" y="190.62" width="54" height="54" rx="8.84" ry="8.84" transform="translate(86 642.75) rotate(-45.02)"/>
          <rect class="cls-2" x="836.6" y="145.42" width="54" height="54" rx="8.84" ry="8.84" transform="translate(131.22 661.45) rotate(-45.02)"/>
          <rect class="cls-2" x="882.09" y="99.89" width="54" height="54" rx="8.84" ry="8.84" transform="translate(176.76 680.28) rotate(-45.02)"/>
          <rect class="cls-4" x="927.42" y="54.53" width="54" height="54" rx="8.84" ry="8.84" transform="translate(222.14 699.05) rotate(-45.02)"/>
        </g>
        <g>
          <rect class="cls-3" x="699.97" y="190.85" width="54" height="54" rx="8.84" ry="8.84" transform="translate(59.02 578.12) rotate(-45.02)"/>
          <rect class="cls-2" x="745.77" y="145" width="54" height="54" rx="8.84" ry="8.84" transform="translate(104.89 597.08) rotate(-45.02)"/>
          <rect class="cls-3" x="790.95" y="99.8" width="54" height="54" rx="8.84" ry="8.84" transform="translate(150.1 615.78) rotate(-45.02)"/>
          <rect class="cls-1" x="836.44" y="54.28" width="54" height="54" rx="8.84" ry="8.84" transform="translate(195.64 634.62) rotate(-45.02)"/>
        </g>
      </g>
      <g>
        <g>
          <rect class="cls-1" x="1341.4" y="190.9" width="54" height="54" rx="8.84" ry="8.84" transform="translate(247.05 1031.88) rotate(-45.02)"/>
          <rect class="cls-2" x="1386.89" y="145.38" width="54" height="54" rx="8.84" ry="8.84" transform="translate(292.58 1050.71) rotate(-45.02)"/>
          <rect class="cls-4" x="1432.38" y="99.85" width="54" height="54" rx="8.84" ry="8.84" transform="translate(338.13 1069.54) rotate(-45.02)"/>
          <rect class="cls-3" x="1477.87" y="54.32" width="54" height="54" rx="8.84" ry="8.84" transform="translate(383.66 1088.37) rotate(-45.02)"/>
        </g>
        <g>
          <rect class="cls-4" x="1250.71" y="190.94" width="54" height="54" rx="8.84" ry="8.84" transform="translate(220.43 967.73) rotate(-45.02)"/>
          <rect class="cls-4" x="1296.36" y="145.58" width="54" height="54" rx="8.84" ry="8.84" transform="translate(265.9 986.73) rotate(-45.02)"/>
          <rect class="cls-3" x="1341.69" y="100.21" width="54" height="54" rx="8.84" ry="8.84" transform="translate(311.28 1005.49) rotate(-45.02)"/>
          <rect class="cls-1" x="1387.18" y="54.68" width="54" height="54" rx="8.84" ry="8.84" transform="translate(356.82 1024.33) rotate(-45.02)"/>
        </g>
        <g>
          <rect class="cls-4" x="1159.98" y="190.62" width="54" height="54" rx="8.84" ry="8.84" transform="translate(194.05 903.46) rotate(-45.02)"/>
          <rect class="cls-2" x="1205.15" y="145.42" width="54" height="54" rx="8.84" ry="8.84" transform="translate(239.27 922.16) rotate(-45.02)"/>
          <rect class="cls-2" x="1250.64" y="99.89" width="54" height="54" rx="8.84" ry="8.84" transform="translate(284.81 941) rotate(-45.02)"/>
          <rect class="cls-4" x="1295.97" y="54.53" width="54" height="54" rx="8.84" ry="8.84" transform="translate(330.19 959.76) rotate(-45.02)"/>
        </g>
        <g>
          <rect class="cls-3" x="1068.52" y="190.85" width="54" height="54" rx="8.84" ry="8.84" transform="translate(167.08 838.83) rotate(-45.02)"/>
          <rect class="cls-2" x="1114.33" y="145" width="54" height="54" rx="8.84" ry="8.84" transform="translate(212.94 857.8) rotate(-45.02)"/>
          <rect class="cls-3" x="1159.5" y="99.8" width="54" height="54" rx="8.84" ry="8.84" transform="translate(258.16 876.49) rotate(-45.02)"/>
          <rect class="cls-1" x="1205" y="54.28" width="54" height="54" rx="8.84" ry="8.84" transform="translate(303.7 895.33) rotate(-45.02)"/>
        </g>
      </g>
      <g>
        <g>
          <rect class="cls-1" x="1705.26" y="190.9" width="54" height="54" rx="8.84" ry="8.84" transform="translate(353.72 1289.27) rotate(-45.02)"/>
          <rect class="cls-2" x="1750.75" y="145.38" width="54" height="54" rx="8.84" ry="8.84" transform="translate(399.26 1308.1) rotate(-45.02)"/>
          <rect class="cls-4" x="1796.24" y="99.85" width="54" height="54" rx="8.84" ry="8.84" transform="translate(444.8 1326.93) rotate(-45.02)"/>
          <rect class="cls-3" x="1841.73" y="54.32" width="54" height="54" rx="8.84" ry="8.84" transform="translate(490.34 1345.76) rotate(-45.02)"/>
        </g>
        <g>
          <rect class="cls-4" x="1614.57" y="190.94" width="54" height="54" rx="8.84" ry="8.84" transform="translate(327.1 1225.12) rotate(-45.02)"/>
          <rect class="cls-4" x="1660.22" y="145.58" width="54" height="54" rx="8.84" ry="8.84" transform="translate(372.58 1244.12) rotate(-45.02)"/>
          <rect class="cls-3" x="1705.55" y="100.21" width="54" height="54" rx="8.84" ry="8.84" transform="translate(417.96 1262.88) rotate(-45.02)"/>
          <rect class="cls-1" x="1751.04" y="54.68" width="54" height="54" rx="8.84" ry="8.84" transform="translate(463.5 1281.72) rotate(-45.02)"/>
        </g>
        <g>
          <rect class="cls-4" x="1523.84" y="190.62" width="54" height="54" rx="8.84" ry="8.84" transform="translate(300.73 1160.86) rotate(-45.02)"/>
          <rect class="cls-2" x="1569.01" y="145.42" width="54" height="54" rx="8.84" ry="8.84" transform="translate(345.95 1179.55) rotate(-45.02)"/>
          <rect class="cls-2" x="1614.5" y="99.89" width="54" height="54" rx="8.84" ry="8.84" transform="translate(391.49 1198.39) rotate(-45.02)"/>
          <rect class="cls-4" x="1659.83" y="54.53" width="54" height="54" rx="8.84" ry="8.84" transform="translate(436.87 1217.15) rotate(-45.02)"/>
        </g>
        <g>
          <rect class="cls-3" x="1432.38" y="190.85" width="54" height="54" rx="8.84" ry="8.84" transform="translate(273.75 1096.22) rotate(-45.02)"/>
          <rect class="cls-2" x="1478.19" y="145" width="54" height="54" rx="8.84" ry="8.84" transform="translate(319.61 1115.19) rotate(-45.02)"/>
          <rect class="cls-3" x="1523.36" y="99.8" width="54" height="54" rx="8.84" ry="8.84" transform="translate(364.83 1133.88) rotate(-45.02)"/>
          <rect class="cls-1" x="1568.85" y="54.28" width="54" height="54" rx="8.84" ry="8.84" transform="translate(410.37 1152.72) rotate(-45.02)"/>
        </g>
      </g>
      <g>
        <g>
          <rect class="cls-1" x="2114.61" y="144.96" width="54" height="54" rx="8.84" ry="8.84" transform="translate(506.23 1565.37) rotate(-45.02)"/>
          <rect class="cls-2" x="2160.1" y="99.44" width="54" height="54" rx="8.84" ry="8.84" transform="translate(551.76 1584.2) rotate(-45.02)"/>
          <rect class="cls-4" x="2205.59" y="53.91" width="54" height="54" rx="8.84" ry="8.84" transform="translate(597.31 1603.04) rotate(-45.02)"/>
          <rect class="cls-3" x="2251.08" y="8.39" width="54" height="54" rx="8.84" ry="8.84" transform="translate(642.84 1621.87) rotate(-45.02)"/>
        </g>
        <g>
          <rect class="cls-4" x="2023.92" y="145.01" width="54" height="54" rx="8.84" ry="8.84" transform="translate(479.61 1501.23) rotate(-45.02)"/>
          <rect class="cls-4" x="2069.57" y="99.64" width="54" height="54" rx="8.84" ry="8.84" transform="translate(525.08 1520.22) rotate(-45.02)"/>
          <rect class="cls-3" x="2114.9" y="54.28" width="54" height="54" rx="8.84" ry="8.84" transform="translate(570.46 1538.98) rotate(-45.02)"/>
          <rect class="cls-1" x="2160.38" y="8.75" width="54" height="54" rx="8.84" ry="8.84" transform="translate(616 1557.82) rotate(-45.02)"/>
        </g>
        <g>
          <rect class="cls-4" x="1933.19" y="144.69" width="54" height="54" rx="8.84" ry="8.84" transform="translate(453.23 1436.96) rotate(-45.02)"/>
          <rect class="cls-2" x="1978.36" y="99.49" width="54" height="54" rx="8.84" ry="8.84" transform="translate(498.45 1455.65) rotate(-45.02)"/>
          <rect class="cls-2" x="2023.85" y="53.96" width="54" height="54" rx="8.84" ry="8.84" transform="translate(543.99 1474.49) rotate(-45.02)"/>
          <rect class="cls-4" x="2069.18" y="8.6" width="54" height="54" rx="8.84" ry="8.84" transform="translate(589.37 1493.25) rotate(-45.02)"/>
        </g>
        <g>
          <rect class="cls-3" x="1841.73" y="144.92" width="54" height="54" rx="8.84" ry="8.84" transform="translate(426.25 1372.32) rotate(-45.02)"/>
          <rect class="cls-2" x="1887.54" y="99.07" width="54" height="54" rx="8.84" ry="8.84" transform="translate(472.12 1391.29) rotate(-45.02)"/>
          <rect class="cls-3" x="1932.71" y="53.87" width="54" height="54" rx="8.84" ry="8.84" transform="translate(517.34 1409.99) rotate(-45.02)"/>
          <rect class="cls-1" x="1978.2" y="8.35" width="54" height="54" rx="8.84" ry="8.84" transform="translate(562.88 1428.83) rotate(-45.02)"/>
        </g>
      </g>
    </g>
  </g>
</svg>