<?xml version="1.0" encoding="UTF-8"?>
<svg id="_Слой_1" data-name="Слой 1" xmlns="http://www.w3.org/2000/svg" xmlns:xlink="http://www.w3.org/1999/xlink" viewBox="0 0 529.04 599.88">
  <defs>
    <style>
      .cls-1 {
        fill: #ffa306;
      }

      .cls-1, .cls-2, .cls-3, .cls-4 {
        stroke: #242f31;
        stroke-miterlimit: 10;
        stroke-width: 4.65px;
      }

      .cls-2 {
        fill: #ff4145;
      }

      .cls-5 {
        filter: url(#drop-shadow-1);
      }

      .cls-3 {
        fill: #fff;
      }

      .cls-4 {
        fill: #4b9bbc;
      }

      .cls-6 {
        fill: #242f31;
        stroke-width: 0px;
      }
    </style>
    <filter id="drop-shadow-1" filterUnits="userSpaceOnUse">
      <feOffset dx="0" dy="20"/>
      <feGaussianBlur result="blur" stdDeviation="15"/>
      <feFlood flood-color="#242f31" flood-opacity=".9"/>
      <feComposite in2="blur" operator="in"/>
      <feComposite in="SourceGraphic"/>
    </filter>
  </defs>
  <g class="cls-5">
    <path class="cls-6" d="m248.45,595.61L15.97,461.49c-9.88-5.7-15.97-16.24-15.97-27.65V166.46c0-11.4,6.08-21.93,15.95-27.64L248.55,4.45c9.88-5.71,22.05-5.71,31.93,0l232.61,134.37c9.87,5.7,15.95,16.24,15.95,27.64v265.18c0,11.33-6.01,21.81-15.78,27.54l-232.73,136.33c-9.9,5.8-22.15,5.84-32.08.11Z"/>
    <g>
      <path class="cls-2" d="m91.31,315.24v71.23c0,7.94-5.58,11.16-12.46,7.19l-61.69-35.62c-6.88-3.97-12.46-13.63-12.46-21.57v-71.23c0-7.94,5.58-11.16,12.46-7.19l61.69,35.62c6.88,3.97,12.46,13.63,12.46,21.57Z"/>
      <path class="cls-1" d="m91.31,215.24v71.23c0,7.94-5.58,11.16-12.46,7.19l-61.69-35.62c-6.88-3.97-12.46-13.63-12.46-21.57v-71.23c0-7.94,5.58-11.16,12.46-7.19l61.69,35.62c6.88,3.97,12.46,13.63,12.46,21.57Z"/>
      <path class="cls-4" d="m264.52,415.24v71.23c0,7.94-5.58,11.16-12.46,7.19l-61.69-35.62c-6.88-3.97-12.46-13.63-12.46-21.57v-71.23c0-7.94,5.58-11.16,12.46-7.19l61.69,35.62c6.88,3.97,12.46,13.63,12.46,21.57Z"/>
      <path class="cls-4" d="m264.52,515.23v71.23c0,7.94-5.58,11.16-12.46,7.19l-61.69-35.62c-6.88-3.97-12.46-13.63-12.46-21.57v-71.23c0-7.94,5.58-11.16,12.46-7.19l61.69,35.62c6.88,3.97,12.46,13.63,12.46,21.57Z"/>
      <path class="cls-1" d="m91.31,415.23v71.23c0,7.94-5.58,11.16-12.46,7.19l-61.69-35.62c-6.88-3.97-12.46-13.63-12.46-21.57v-71.23c0-7.94,5.58-11.16,12.46-7.19l61.69,35.62c6.88,3.97,12.46,13.63,12.46,21.57Z"/>
      <path class="cls-2" d="m177.91,265.24v71.23c0,7.94-5.58,11.16-12.46,7.19l-61.69-35.62c-6.88-3.97-12.46-13.63-12.46-21.57v-71.23c0-7.94,5.58-11.16,12.46-7.19l61.69,35.62c6.88,3.97,12.46,13.63,12.46,21.57Z"/>
      <path class="cls-3" d="m177.91,465.23v71.23c0,7.94-5.58,11.16-12.46,7.19l-61.69-35.62c-6.88-3.97-12.46-13.63-12.46-21.57v-71.23c0-7.94,5.58-11.16,12.46-7.19l61.69,35.62c6.88,3.97,12.46,13.63,12.46,21.57Z"/>
      <path class="cls-2" d="m177.91,365.24v71.23c0,7.94-5.58,11.16-12.46,7.19l-61.69-35.62c-6.88-3.97-12.46-13.63-12.46-21.57v-71.23c0-7.94,5.58-11.16,12.46-7.19l61.69,35.62c6.88,3.97,12.46,13.63,12.46,21.57Z"/>
      <path class="cls-1" d="m264.52,315.24v71.23c0,7.94-5.58,11.16-12.46,7.19l-61.69-35.62c-6.88-3.97-12.46-13.63-12.46-21.57v-71.23c0-7.94,5.58-11.16,12.46-7.19l61.69,35.62c6.88,3.97,12.46,13.63,12.46,21.57Z"/>
    </g>
    <g>
      <path class="cls-1" d="m351.12,365.24v71.23c0,7.94-5.58,17.6-12.46,21.57l-61.69,35.62c-6.88,3.97-12.46.75-12.46-7.19v-71.23c0-7.94,5.58-17.6,12.46-21.57l61.69-35.62c6.88-3.97,12.46-.75,12.46,7.19Z"/>
      <path class="cls-3" d="m351.12,265.24v71.23c0,7.94-5.58,17.6-12.46,21.57l-61.69,35.62c-6.88,3.97-12.46.75-12.46-7.19v-71.23c0-7.94,5.58-17.6,12.46-21.57l61.69-35.62c6.88-3.97,12.46-.75,12.46,7.19Z"/>
      <path class="cls-4" d="m524.33,265.24v71.23c0,7.94-5.58,17.6-12.46,21.57l-61.69,35.62c-6.88,3.97-12.46.75-12.46-7.19v-71.23c0-7.94,5.58-17.6,12.46-21.57l61.69-35.62c6.88-3.97,12.46-.75,12.46,7.19Z"/>
      <path class="cls-2" d="m524.33,365.23v71.23c0,7.94-5.58,17.6-12.46,21.57l-61.69,35.62c-6.88,3.97-12.46.75-12.46-7.19v-71.23c0-7.94,5.58-17.6,12.46-21.57l61.69-35.62c6.88-3.97,12.46-.75,12.46,7.19Z"/>
      <path class="cls-1" d="m351.12,465.23v71.23c0,7.94-5.58,17.6-12.46,21.57l-61.69,35.62c-6.88,3.97-12.46.75-12.46-7.19v-71.23c0-7.94,5.58-17.6,12.46-21.57l61.69-35.62c6.88-3.97,12.46-.75,12.46,7.19Z"/>
      <path class="cls-2" d="m437.73,215.24v71.23c0,7.94-5.58,17.6-12.46,21.57l-61.69,35.62c-6.88,3.97-12.46.75-12.46-7.19v-71.23c0-7.94,5.58-17.6,12.46-21.57l61.69-35.62c6.88-3.97,12.46-.75,12.46,7.19Z"/>
      <path class="cls-4" d="m437.73,415.23v71.23c0,7.94-5.58,17.6-12.46,21.57l-61.69,35.62c-6.88,3.97-12.46.75-12.46-7.19v-71.23c0-7.94,5.58-17.6,12.46-21.57l61.69-35.62c6.88-3.97,12.46-.75,12.46,7.19Z"/>
      <path class="cls-4" d="m437.73,315.24v71.23c0,7.94-5.58,17.6-12.46,21.57l-61.69,35.62c-6.88,3.97-12.46.75-12.46-7.19v-71.23c0-7.94,5.58-17.6,12.46-21.57l61.69-35.62c6.88-3.97,12.46-.75,12.46,7.19Z"/>
      <path class="cls-2" d="m524.33,165.24v71.23c0,7.94-5.58,17.6-12.46,21.57l-61.69,35.62c-6.88,3.97-12.46.75-12.46-7.19v-71.23c0-7.94,5.58-17.6,12.46-21.57l61.69-35.62c6.88-3.97,12.46-.75,12.46,7.19Z"/>
    </g>
    <g>
      <path class="cls-3" d="m252.06,105.3l-61.69,35.62c-6.88,3.97-18.03,3.97-24.91,0l-61.69-35.62c-6.88-3.97-6.88-10.41,0-14.38l61.69-35.62c6.88-3.97,18.03-3.97,24.91,0l61.69,35.62c6.88,3.97,6.88,10.41,0,14.38Z"/>
      <path class="cls-3" d="m338.66,55.31l-61.69,35.62c-6.88,3.97-18.03,3.97-24.91,0l-61.69-35.62c-6.88-3.97-6.88-10.41,0-14.38L252.06,5.31c6.88-3.97,18.03-3.97,24.91,0l61.69,35.62c6.88,3.97,6.88,10.41,0,14.38Z"/>
      <path class="cls-1" d="m425.27,205.3l-61.69,35.62c-6.88,3.97-18.03,3.97-24.91,0l-61.69-35.62c-6.88-3.97-6.88-10.41,0-14.38l61.69-35.62c6.88-3.97,18.03-3.97,24.91,0l61.69,35.62c6.88,3.97,6.88,10.41,0,14.38Z"/>
      <path class="cls-4" d="m338.67,255.3l-61.69,35.62c-6.88,3.97-18.03,3.97-24.91,0l-61.69-35.62c-6.88-3.97-6.88-10.41,0-14.38l61.69-35.62c6.88-3.97,18.03-3.97,24.91,0l61.69,35.62c6.88,3.97,6.88,10.41,0,14.38Z"/>
      <path class="cls-2" d="m165.46,155.3l-61.69,35.62c-6.88,3.97-18.03,3.97-24.91,0l-61.69-35.62c-6.88-3.97-6.88-10.41,0-14.38l61.69-35.62c6.88-3.97,18.03-3.97,24.91,0l61.69,35.62c6.88,3.97,6.88,10.41,0,14.38Z"/>
      <path class="cls-2" d="m425.26,105.31l-61.69,35.62c-6.88,3.97-18.03,3.97-24.91,0l-61.69-35.62c-6.88-3.97-6.88-10.41,0-14.38l61.69-35.62c6.88-3.97,18.03-3.97,24.91,0l61.69,35.62c6.88,3.97,6.88,10.41,0,14.38Z"/>
      <path class="cls-4" d="m252.06,205.3l-61.69,35.62c-6.88,3.97-18.03,3.97-24.91,0l-61.69-35.62c-6.88-3.97-6.88-10.41,0-14.38l61.69-35.62c6.88-3.97,18.03-3.97,24.91,0l61.69,35.62c6.88,3.97,6.88,10.41,0,14.38Z"/>
      <path class="cls-3" d="m338.66,155.3l-61.69,35.62c-6.88,3.97-18.03,3.97-24.91,0l-61.69-35.62c-6.88-3.97-6.88-10.41,0-14.38l61.69-35.62c6.88-3.97,18.03-3.97,24.91,0l61.69,35.62c6.88,3.97,6.88,10.41,0,14.38Z"/>
      <path class="cls-1" d="m511.87,155.31l-61.69,35.62c-6.88,3.97-18.03,3.97-24.91,0l-61.69-35.62c-6.88-3.97-6.88-10.41,0-14.38l61.69-35.62c6.88-3.97,18.03-3.97,24.91,0l61.69,35.62c6.88,3.97,6.88,10.41,0,14.38Z"/>
    </g>
  </g>
</svg>