<?xml version="1.0" encoding="UTF-8"?>
<svg id="_Слой_2" data-name="Слой 2" xmlns="http://www.w3.org/2000/svg" viewBox="0 0 2341.9 278.77">
  <defs>
    <style>
      .cls-1, .cls-2 {
        fill: #fff;
      }

      .cls-1, .cls-2, .cls-3, .cls-4, .cls-5 {
        stroke: #000;
        stroke-miterlimit: 10;
        stroke-width: 1.65px;
      }

      .cls-2 {
        opacity: .5;
      }

      .cls-3 {
        fill: #ffa306;
      }

      .cls-4 {
        fill: #4b9bbc;
      }

      .cls-5 {
        fill: #ff4145;
      }
    </style>
  </defs>
  <g id="_Слой_2-2" data-name="Слой 2">
    <g>
      <g>
        <g>
          <g>
            <rect class="cls-1" x="298.5" y="158.18" width="54" height="54" rx="8.84" ry="8.84" transform="translate(-35.57 284.55) rotate(-45.02)"/>
            <rect class="cls-5" x="343.99" y="112.66" width="54" height="54" rx="8.84" ry="8.84" transform="translate(9.97 303.38) rotate(-45.02)"/>
            <rect class="cls-4" x="389.48" y="67.13" width="54" height="54" rx="8.84" ry="8.84" transform="translate(55.51 322.21) rotate(-45.02)"/>
            <rect class="cls-3" x="434.97" y="21.61" width="54" height="54" rx="8.84" ry="8.84" transform="translate(101.05 341.04) rotate(-45.02)"/>
          </g>
          <g>
            <rect class="cls-4" x="207.81" y="158.23" width="54" height="54" rx="8.84" ry="8.84" transform="translate(-62.19 220.4) rotate(-45.02)"/>
            <rect class="cls-4" x="253.46" y="112.86" width="54" height="54" rx="8.84" ry="8.84" transform="translate(-16.71 239.4) rotate(-45.02)"/>
            <rect class="cls-3" x="298.79" y="67.5" width="54" height="54" rx="8.84" ry="8.84" transform="translate(28.67 258.16) rotate(-45.02)"/>
            <rect class="cls-1" x="344.28" y="21.97" width="54" height="54" rx="8.84" ry="8.84" transform="translate(74.21 277) rotate(-45.02)"/>
          </g>
          <g>
            <rect class="cls-4" x="117.08" y="157.91" width="54" height="54" rx="8.84" ry="8.84" transform="translate(-88.56 156.14) rotate(-45.02)"/>
            <rect class="cls-5" x="162.25" y="112.71" width="54" height="54" rx="8.84" ry="8.84" transform="translate(-43.34 174.83) rotate(-45.02)"/>
            <rect class="cls-5" x="207.74" y="67.18" width="54" height="54" rx="8.84" ry="8.84" transform="translate(2.2 193.67) rotate(-45.02)"/>
            <rect class="cls-4" x="253.07" y="21.82" width="54" height="54" rx="8.84" ry="8.84" transform="translate(47.58 212.43) rotate(-45.02)"/>
          </g>
          <g>
            <rect class="cls-3" x="25.62" y="158.14" width="54" height="54" rx="8.84" ry="8.84" transform="translate(-115.54 91.5) rotate(-45.02)"/>
            <rect class="cls-5" x="71.43" y="112.29" width="54" height="54" rx="8.84" ry="8.84" transform="translate(-69.67 110.47) rotate(-45.02)"/>
            <rect class="cls-3" x="116.6" y="67.09" width="54" height="54" rx="8.84" ry="8.84" transform="translate(-24.46 129.16) rotate(-45.02)"/>
            <rect class="cls-1" x="162.1" y="21.57" width="54" height="54" rx="8.84" ry="8.84" transform="translate(21.08 148) rotate(-45.02)"/>
          </g>
        </g>
        <g>
          <g>
            <rect class="cls-1" x="626.26" y="204.12" width="54" height="54" rx="8.84" ry="8.84" transform="translate(28.03 529.87) rotate(-45.02)"/>
            <rect class="cls-5" x="671.75" y="158.59" width="54" height="54" rx="8.84" ry="8.84" transform="translate(73.57 548.7) rotate(-45.02)"/>
            <rect class="cls-4" x="717.24" y="113.07" width="54" height="54" rx="8.84" ry="8.84" transform="translate(119.11 567.54) rotate(-45.02)"/>
            <rect class="cls-3" x="762.73" y="67.54" width="54" height="54" rx="8.84" ry="8.84" transform="translate(164.65 586.37) rotate(-45.02)"/>
          </g>
          <g>
            <rect class="cls-4" x="535.57" y="204.16" width="54" height="54" rx="8.84" ry="8.84" transform="translate(1.41 465.73) rotate(-45.02)"/>
            <rect class="cls-4" x="581.22" y="158.79" width="54" height="54" rx="8.84" ry="8.84" transform="translate(46.89 484.72) rotate(-45.02)"/>
            <rect class="cls-3" x="626.55" y="113.43" width="54" height="54" rx="8.84" ry="8.84" transform="translate(92.27 503.49) rotate(-45.02)"/>
            <rect class="cls-1" x="672.04" y="67.9" width="54" height="54" rx="8.84" ry="8.84" transform="translate(137.81 522.32) rotate(-45.02)"/>
          </g>
          <g>
            <rect class="cls-4" x="444.84" y="203.84" width="54" height="54" rx="8.84" ry="8.84" transform="translate(-24.96 401.46) rotate(-45.02)"/>
            <rect class="cls-5" x="490.02" y="158.64" width="54" height="54" rx="8.84" ry="8.84" transform="translate(20.26 420.16) rotate(-45.02)"/>
            <rect class="cls-5" x="535.5" y="113.11" width="54" height="54" rx="8.84" ry="8.84" transform="translate(65.8 438.99) rotate(-45.02)"/>
            <rect class="cls-4" x="580.83" y="67.75" width="54" height="54" rx="8.84" ry="8.84" transform="translate(111.18 457.75) rotate(-45.02)"/>
          </g>
          <g>
            <rect class="cls-3" x="353.38" y="204.07" width="54" height="54" rx="8.84" ry="8.84" transform="translate(-51.94 336.82) rotate(-45.02)"/>
            <rect class="cls-5" x="399.19" y="158.22" width="54" height="54" rx="8.84" ry="8.84" transform="translate(-6.08 355.79) rotate(-45.02)"/>
            <rect class="cls-3" x="444.36" y="113.02" width="54" height="54" rx="8.84" ry="8.84" transform="translate(39.14 374.49) rotate(-45.02)"/>
            <rect class="cls-1" x="489.86" y="67.5" width="54" height="54" rx="8.84" ry="8.84" transform="translate(84.68 393.33) rotate(-45.02)"/>
          </g>
        </g>
        <g>
          <g>
            <rect class="cls-1" x="990.12" y="204.12" width="54" height="54" rx="8.84" ry="8.84" transform="translate(134.71 787.26) rotate(-45.02)"/>
            <rect class="cls-5" x="1035.61" y="158.59" width="54" height="54" rx="8.84" ry="8.84" transform="translate(180.24 806.09) rotate(-45.02)"/>
            <rect class="cls-4" x="1081.1" y="113.07" width="54" height="54" rx="8.84" ry="8.84" transform="translate(225.79 824.93) rotate(-45.02)"/>
            <rect class="cls-3" x="1126.59" y="67.54" width="54" height="54" rx="8.84" ry="8.84" transform="translate(271.33 843.76) rotate(-45.02)"/>
          </g>
          <g>
            <rect class="cls-4" x="899.43" y="204.16" width="54" height="54" rx="8.84" ry="8.84" transform="translate(108.09 723.12) rotate(-45.02)"/>
            <rect class="cls-4" x="945.08" y="158.79" width="54" height="54" rx="8.84" ry="8.84" transform="translate(153.56 742.11) rotate(-45.02)"/>
            <rect class="cls-3" x="990.41" y="113.43" width="54" height="54" rx="8.84" ry="8.84" transform="translate(198.94 760.88) rotate(-45.02)"/>
            <rect class="cls-1" x="1035.9" y="67.9" width="54" height="54" rx="8.84" ry="8.84" transform="translate(244.49 779.71) rotate(-45.02)"/>
          </g>
          <g>
            <rect class="cls-4" x="808.7" y="203.84" width="54" height="54" rx="8.84" ry="8.84" transform="translate(81.71 658.85) rotate(-45.02)"/>
            <rect class="cls-5" x="853.87" y="158.64" width="54" height="54" rx="8.84" ry="8.84" transform="translate(126.93 677.55) rotate(-45.02)"/>
            <rect class="cls-5" x="899.36" y="113.11" width="54" height="54" rx="8.84" ry="8.84" transform="translate(172.48 696.38) rotate(-45.02)"/>
            <rect class="cls-4" x="944.69" y="67.75" width="54" height="54" rx="8.84" ry="8.84" transform="translate(217.85 715.14) rotate(-45.02)"/>
          </g>
          <g>
            <rect class="cls-3" x="717.24" y="204.07" width="54" height="54" rx="8.84" ry="8.84" transform="translate(54.74 594.21) rotate(-45.02)"/>
            <rect class="cls-5" x="763.05" y="158.22" width="54" height="54" rx="8.84" ry="8.84" transform="translate(100.6 613.18) rotate(-45.02)"/>
            <rect class="cls-3" x="808.22" y="113.02" width="54" height="54" rx="8.84" ry="8.84" transform="translate(145.82 631.88) rotate(-45.02)"/>
            <rect class="cls-1" x="853.72" y="67.5" width="54" height="54" rx="8.84" ry="8.84" transform="translate(191.36 650.72) rotate(-45.02)"/>
          </g>
        </g>
        <g>
          <g>
            <rect class="cls-1" x="1358.68" y="204.12" width="54" height="54" rx="8.84" ry="8.84" transform="translate(242.76 1047.98) rotate(-45.02)"/>
            <rect class="cls-5" x="1404.17" y="158.59" width="54" height="54" rx="8.84" ry="8.84" transform="translate(288.3 1066.81) rotate(-45.02)"/>
            <rect class="cls-4" x="1449.65" y="113.07" width="54" height="54" rx="8.84" ry="8.84" transform="translate(333.84 1085.64) rotate(-45.02)"/>
            <rect class="cls-3" x="1495.14" y="67.54" width="54" height="54" rx="8.84" ry="8.84" transform="translate(379.38 1104.47) rotate(-45.02)"/>
          </g>
          <g>
            <rect class="cls-4" x="1267.98" y="204.16" width="54" height="54" rx="8.84" ry="8.84" transform="translate(216.14 983.83) rotate(-45.02)"/>
            <rect class="cls-4" x="1313.63" y="158.79" width="54" height="54" rx="8.84" ry="8.84" transform="translate(261.62 1002.82) rotate(-45.02)"/>
            <rect class="cls-3" x="1358.96" y="113.43" width="54" height="54" rx="8.84" ry="8.84" transform="translate(306.99 1021.59) rotate(-45.02)"/>
            <rect class="cls-1" x="1404.45" y="67.9" width="54" height="54" rx="8.84" ry="8.84" transform="translate(352.54 1040.42) rotate(-45.02)"/>
          </g>
          <g>
            <rect class="cls-4" x="1177.26" y="203.84" width="54" height="54" rx="8.84" ry="8.84" transform="translate(189.77 919.56) rotate(-45.02)"/>
            <rect class="cls-5" x="1222.43" y="158.64" width="54" height="54" rx="8.84" ry="8.84" transform="translate(234.98 938.26) rotate(-45.02)"/>
            <rect class="cls-5" x="1267.92" y="113.11" width="54" height="54" rx="8.84" ry="8.84" transform="translate(280.53 957.09) rotate(-45.02)"/>
            <rect class="cls-4" x="1313.25" y="67.75" width="54" height="54" rx="8.84" ry="8.84" transform="translate(325.91 975.85) rotate(-45.02)"/>
          </g>
          <g>
            <rect class="cls-3" x="1085.8" y="204.07" width="54" height="54" rx="8.84" ry="8.84" transform="translate(162.79 854.93) rotate(-45.02)"/>
            <rect class="cls-5" x="1131.6" y="158.22" width="54" height="54" rx="8.84" ry="8.84" transform="translate(208.65 873.89) rotate(-45.02)"/>
            <rect class="cls-3" x="1176.77" y="113.02" width="54" height="54" rx="8.84" ry="8.84" transform="translate(253.87 892.59) rotate(-45.02)"/>
            <rect class="cls-1" x="1222.27" y="67.5" width="54" height="54" rx="8.84" ry="8.84" transform="translate(299.41 911.43) rotate(-45.02)"/>
          </g>
        </g>
        <g>
          <g>
            <rect class="cls-1" x="1722.54" y="204.12" width="54" height="54" rx="8.84" ry="8.84" transform="translate(349.43 1305.37) rotate(-45.02)"/>
            <rect class="cls-5" x="1768.03" y="158.59" width="54" height="54" rx="8.84" ry="8.84" transform="translate(394.97 1324.2) rotate(-45.02)"/>
            <rect class="cls-4" x="1813.51" y="113.07" width="54" height="54" rx="8.84" ry="8.84" transform="translate(440.51 1343.03) rotate(-45.02)"/>
            <rect class="cls-3" x="1859" y="67.54" width="54" height="54" rx="8.84" ry="8.84" transform="translate(486.05 1361.86) rotate(-45.02)"/>
          </g>
          <g>
            <rect class="cls-4" x="1631.84" y="204.16" width="54" height="54" rx="8.84" ry="8.84" transform="translate(322.82 1241.22) rotate(-45.02)"/>
            <rect class="cls-4" x="1677.49" y="158.79" width="54" height="54" rx="8.84" ry="8.84" transform="translate(368.29 1260.21) rotate(-45.02)"/>
            <rect class="cls-3" x="1722.82" y="113.43" width="54" height="54" rx="8.84" ry="8.84" transform="translate(413.67 1278.98) rotate(-45.02)"/>
            <rect class="cls-1" x="1768.31" y="67.9" width="54" height="54" rx="8.84" ry="8.84" transform="translate(459.21 1297.81) rotate(-45.02)"/>
          </g>
          <g>
            <rect class="cls-4" x="1541.12" y="203.84" width="54" height="54" rx="8.84" ry="8.84" transform="translate(296.44 1176.95) rotate(-45.02)"/>
            <rect class="cls-5" x="1586.29" y="158.64" width="54" height="54" rx="8.84" ry="8.84" transform="translate(341.66 1195.65) rotate(-45.02)"/>
            <rect class="cls-5" x="1631.77" y="113.11" width="54" height="54" rx="8.84" ry="8.84" transform="translate(387.2 1214.48) rotate(-45.02)"/>
            <rect class="cls-4" x="1677.11" y="67.75" width="54" height="54" rx="8.84" ry="8.84" transform="translate(432.58 1233.24) rotate(-45.02)"/>
          </g>
          <g>
            <rect class="cls-3" x="1449.66" y="204.07" width="54" height="54" rx="8.84" ry="8.84" transform="translate(269.46 1112.32) rotate(-45.02)"/>
            <rect class="cls-5" x="1495.46" y="158.22" width="54" height="54" rx="8.84" ry="8.84" transform="translate(315.33 1131.28) rotate(-45.02)"/>
            <rect class="cls-3" x="1540.63" y="113.02" width="54" height="54" rx="8.84" ry="8.84" transform="translate(360.54 1149.98) rotate(-45.02)"/>
            <rect class="cls-1" x="1586.13" y="67.5" width="54" height="54" rx="8.84" ry="8.84" transform="translate(406.08 1168.82) rotate(-45.02)"/>
          </g>
        </g>
        <g>
          <g>
            <rect class="cls-1" x="2131.88" y="158.18" width="54" height="54" rx="8.84" ry="8.84" transform="translate(501.94 1581.47) rotate(-45.02)"/>
            <rect class="cls-5" x="2177.37" y="112.66" width="54" height="54" rx="8.84" ry="8.84" transform="translate(547.48 1600.3) rotate(-45.02)"/>
            <rect class="cls-4" x="2222.86" y="67.13" width="54" height="54" rx="8.84" ry="8.84" transform="translate(593.02 1619.13) rotate(-45.02)"/>
            <rect class="cls-3" x="2268.35" y="21.61" width="54" height="54" rx="8.84" ry="8.84" transform="translate(638.56 1637.96) rotate(-45.02)"/>
          </g>
          <g>
            <rect class="cls-4" x="2041.19" y="158.23" width="54" height="54" rx="8.84" ry="8.84" transform="translate(475.32 1517.32) rotate(-45.02)"/>
            <rect class="cls-4" x="2086.84" y="112.86" width="54" height="54" rx="8.84" ry="8.84" transform="translate(520.8 1536.32) rotate(-45.02)"/>
            <rect class="cls-3" x="2132.17" y="67.5" width="54" height="54" rx="8.84" ry="8.84" transform="translate(566.17 1555.08) rotate(-45.02)"/>
            <rect class="cls-1" x="2177.66" y="21.97" width="54" height="54" rx="8.84" ry="8.84" transform="translate(611.72 1573.91) rotate(-45.02)"/>
          </g>
          <g>
            <rect class="cls-4" x="1950.46" y="157.91" width="54" height="54" rx="8.84" ry="8.84" transform="translate(448.95 1453.05) rotate(-45.02)"/>
            <rect class="cls-5" x="1995.63" y="112.71" width="54" height="54" rx="8.84" ry="8.84" transform="translate(494.16 1471.75) rotate(-45.02)"/>
            <rect class="cls-5" x="2041.12" y="67.18" width="54" height="54" rx="8.84" ry="8.84" transform="translate(539.71 1490.58) rotate(-45.02)"/>
            <rect class="cls-4" x="2086.45" y="21.82" width="54" height="54" rx="8.84" ry="8.84" transform="translate(585.09 1509.35) rotate(-45.02)"/>
          </g>
          <g>
            <rect class="cls-3" x="1859" y="158.14" width="54" height="54" rx="8.84" ry="8.84" transform="translate(421.97 1388.42) rotate(-45.02)"/>
            <rect class="cls-5" x="1904.81" y="112.29" width="54" height="54" rx="8.84" ry="8.84" transform="translate(467.83 1407.38) rotate(-45.02)"/>
            <rect class="cls-3" x="1949.98" y="67.09" width="54" height="54" rx="8.84" ry="8.84" transform="translate(513.05 1426.08) rotate(-45.02)"/>
            <rect class="cls-1" x="1995.48" y="21.57" width="54" height="54" rx="8.84" ry="8.84" transform="translate(558.59 1444.92) rotate(-45.02)"/>
          </g>
        </g>
      </g>
      <path class="cls-2" d="m257.26,17.88l.62-.59c12.3-11.77,31.78-11.47,43.7.69l1.8,1.84c12.16,12.4,32.12,12.43,44.32.07l.77-.78c12.32-12.49,32.53-12.31,44.63.39h0c11.98,12.57,31.94,12.89,44.32.71l3.62-3.57c11.74-11.56,30.47-11.95,42.68-.88l56.79,51.45c12.31,11.15,31.21,10.66,42.92-1.12l2.28-2.29c12.19-12.25,32.03-12.22,44.17.08l1.28,1.3c12.17,12.32,32.06,12.33,44.23.01l1.45-1.47c12.09-12.23,31.82-12.32,44.02-.2l1.67,1.65c12.05,11.97,31.47,12.06,43.62.2l1.37-1.34c12.27-11.97,31.92-11.75,43.92.49l.79.81c12.03,12.28,31.73,12.47,43.99.42l2.65-2.6c12.18-11.96,31.73-11.87,43.79.22l1.82,1.83c12.1,12.12,31.72,12.17,43.88.12l1.38-1.37c12.14-12.03,31.72-12,43.82.06l1.52,1.52c12.17,12.12,31.85,12.08,43.97-.09l1.42-1.42c12.19-12.24,32.02-12.2,44.16.1l1.37,1.39c12.16,12.32,32.04,12.34,44.22.04l2.42-2.45c11.71-11.82,30.65-12.33,42.98-1.15l6.21,5.63c12.28,11.14,31.15,10.68,42.87-1.05l2.51-2.51c12.17-12.17,31.91-12.14,44.04.06l1.53,1.54c12.19,12.26,32.04,12.23,44.18-.08l1.27-1.29c12.12-12.29,31.94-12.34,44.13-.13l1.32,1.32c12.14,12.16,31.85,12.17,43.99.01l1.39-1.39c12.18-12.19,31.95-12.15,44.08.1l1.49,1.5c12.13,12.25,31.92,12.29,44.1.08l1.67-1.67c12.16-12.2,31.92-12.18,44.06.04l1.22,1.23c12.3,12.37,32.37,12.21,44.46-.37l.52-.54c11.9-12.38,31.58-12.77,43.95-.87l2.39,2.3c12.12,11.65,31.29,11.55,43.3-.21l2.25-2.21c12.15-11.9,31.61-11.83,43.68.16l1.54,1.53c12.06,11.99,31.51,12.07,43.66.18l1.7-1.66c12.25-11.98,31.88-11.8,43.9.41l1.37,1.39c12.15,12.35,32.06,12.38,44.25.07l1.59-1.61c12.03-12.14,31.6-12.3,43.82-.35l1.74,1.7c12.18,11.91,31.68,11.8,43.72-.25l46.98-47.01c12.13-12.14,31.79-12.15,43.94-.04l1.78,1.78c12.1,12.07,31.68,12.11,43.83.08l1.72-1.7c12.18-12.06,31.83-11.99,43.92.17l1.33,1.34c12.07,12.14,31.69,12.24,43.88.21l1.77-1.74c12.16-11.99,31.71-11.94,43.8.13l1.44,1.44c12.12,12.1,31.75,12.12,43.89.03l1.51-1.51c12.16-12.1,31.82-12.07,43.94.08l14.72,14.76c12.07,12.1,12.11,31.67.09,43.82l-153.27,154.93c-5.77,5.84-13.62,9.15-21.83,9.22l-321.84,2.79c-7.32.06-14.39,2.71-19.95,7.48l-22.41,19.19c-5.63,4.82-12.81,7.48-20.22,7.48H385.78c-3.57,0-7.12-.62-10.49-1.82l-90.4-32.4c-3.37-1.21-6.91-1.82-10.49-1.82H62.98c-8.42,0-16.48-3.41-22.33-9.46l-31.07-32.09c-11.6-11.98-11.68-30.99-.18-43.07L162.45,9.52c11.94-11.53,30.85-11.61,42.88-.17l7.97,7.57c11.87,12.4,31.55,12.83,43.96.96Z"/>
    </g>
  </g>
</svg>