<?xml version="1.0" encoding="UTF-8"?>
<svg id="Capa_1" data-name="Capa 1" xmlns="http://www.w3.org/2000/svg" viewBox="0 0 469.33 469.33">
  <defs>
    <style>
      .cls-1 {
        fill: #4b9bbc;
      }

      .cls-1, .cls-2, .cls-3, .cls-4 {
        stroke-width: 0px;
      }

      .cls-2 {
        fill: #ffa306;
      }

      .cls-3 {
        fill: #ff4145;
      }

      .cls-4 {
        fill: #303c42;
      }
    </style>
  </defs>
  <path class="cls-4" d="m53.33,106.67h362.67c29.42,0,53.33-23.93,53.33-53.33S445.42,0,416,0H53.33C23.92,0,0,23.93,0,53.33s23.92,53.33,53.33,53.33Z"/>
  <path class="cls-3" d="m53.33,21.33h362.67c17.65,0,32,14.35,32,32s-14.35,32-32,32H53.33c-17.65,0-32-14.35-32-32s14.35-32,32-32Z"/>
  <path class="cls-4" d="m53.33,288h362.67c29.42,0,53.33-23.93,53.33-53.33s-23.92-53.33-53.33-53.33H53.33c-29.42,0-53.33,23.93-53.33,53.33s23.92,53.33,53.33,53.33Z"/>
  <path class="cls-1" d="m53.33,202.67h362.67c17.65,0,32,14.35,32,32s-14.35,32-32,32H53.33c-17.65,0-32-14.35-32-32s14.35-32,32-32Z"/>
  <path class="cls-4" d="m53.33,469.33h362.67c29.42,0,53.33-23.93,53.33-53.33s-23.92-53.33-53.33-53.33H53.33c-29.42,0-53.33,23.93-53.33,53.33s23.92,53.33,53.33,53.33Z"/>
  <path class="cls-2" d="m53.33,384h362.67c17.65,0,32,14.35,32,32s-14.35,32-32,32H53.33c-17.65,0-32-14.35-32-32s14.35-32,32-32Z"/>
</svg>